<svg width="36" height="36" viewBox="0 0 36 36" fill="none" xmlns="http://www.w3.org/2000/svg">
<g clip-path="url(#clip0_1_83)">
<mask id="path-1-inside-1_1_83" fill="white">
<path d="M17.8003 35.0315C8.1353 35.0141 0.314437 27.1649 0.331886 17.5C0.349334 7.835 8.19848 0.0141451 17.8635 0.0315935C27.5284 0.0490419 35.3493 7.89819 35.3318 17.5632C35.3144 27.2281 27.4652 35.049 17.8003 35.0315ZM17.8603 1.75693C9.14824 1.7412 2.07295 8.791 2.05722 17.5031C2.04149 26.2152 9.09129 33.2905 17.8034 33.3062C26.5155 33.3219 33.5908 26.2721 33.6065 17.56C33.6222 8.84795 26.5724 1.77266 17.8603 1.75693Z"/>
</mask>
<path d="M17.8003 35.0315C8.1353 35.0141 0.314437 27.1649 0.331886 17.5C0.349334 7.835 8.19848 0.0141451 17.8635 0.0315935C27.5284 0.0490419 35.3493 7.89819 35.3318 17.5632C35.3144 27.2281 27.4652 35.049 17.8003 35.0315ZM17.8603 1.75693C9.14824 1.7412 2.07295 8.791 2.05722 17.5031C2.04149 26.2152 9.09129 33.2905 17.8034 33.3062C26.5155 33.3219 33.5908 26.2721 33.6065 17.56C33.6222 8.84795 26.5724 1.77266 17.8603 1.75693Z" fill="#E6E0FF" stroke="#755AE2" stroke-width="6" mask="url(#path-1-inside-1_1_83)"/>
<path d="M17.8634 31.3132C25.4573 31.3132 31.6134 25.1571 31.6134 17.5632C31.6134 9.96927 25.4573 3.81319 17.8634 3.81319C10.2695 3.81319 4.11342 9.96927 4.11342 17.5632C4.11342 25.1571 10.2695 31.3132 17.8634 31.3132Z" fill="#755AE2"/>
<path d="M15.9109 22.4857C15.6359 22.4857 15.3747 22.3757 15.1822 22.1832L11.2909 18.2919C10.8922 17.8932 10.8922 17.2332 11.2909 16.8344C11.6897 16.4357 12.3497 16.4357 12.7484 16.8344L15.9109 19.9969L22.9784 12.9294C23.3772 12.5307 24.0372 12.5307 24.4359 12.9294C24.8347 13.3282 24.8347 13.9882 24.4359 14.3869L16.6397 22.1832C16.4472 22.3757 16.1859 22.4857 15.9109 22.4857Z" fill="white"/>
</g>
<defs>
<clipPath id="clip0_1_83">
<rect width="35.0631" height="35.0631" fill="white" transform="translate(0.300293)"/>
</clipPath>
</defs>
</svg>
