<svg width="36" height="36" viewBox="0 0 36 36" fill="none" xmlns="http://www.w3.org/2000/svg">
<circle cx="17.5001" cy="17.5" r="17.5" fill="#F6E4EE"/>
<mask id="path-2-inside-1_3_123" fill="white">
<path d="M17.5632 35.0316C19.8613 35.0274 22.1361 34.5707 24.2577 33.6874C26.3793 32.8041 28.3062 31.5116 29.9283 29.8836C31.5503 28.2557 32.8359 26.3242 33.7115 24.1994C34.5871 22.0746 35.0357 19.7981 35.0315 17.5C35.0274 15.2019 34.5706 12.9271 33.6873 10.8055C32.8041 8.68387 31.5115 6.75701 29.8836 5.13492C28.2556 3.51283 26.3241 2.22728 24.1993 1.35165C22.0745 0.476032 19.7981 0.0274902 17.5 0.0316393L17.5031 1.75698C19.5746 1.75324 21.6266 2.15756 23.5419 2.94685C25.4572 3.73614 27.1983 4.89496 28.6658 6.35712C30.1332 7.81929 31.2983 9.55617 32.0945 11.4686C32.8907 13.381 33.3025 15.4316 33.3062 17.5031C33.3099 19.5747 32.9056 21.6267 32.1163 23.542C31.327 25.4573 30.1682 27.1984 28.7061 28.6658C27.2439 30.1333 25.507 31.2984 23.5946 32.0946C21.6821 32.8908 19.6316 33.3025 17.56 33.3062L17.5632 35.0316Z"/>
</mask>
<path d="M17.5632 35.0316C19.8613 35.0274 22.1361 34.5707 24.2577 33.6874C26.3793 32.8041 28.3062 31.5116 29.9283 29.8836C31.5503 28.2557 32.8359 26.3242 33.7115 24.1994C34.5871 22.0746 35.0357 19.7981 35.0315 17.5C35.0274 15.2019 34.5706 12.9271 33.6873 10.8055C32.8041 8.68387 31.5115 6.75701 29.8836 5.13492C28.2556 3.51283 26.3241 2.22728 24.1993 1.35165C22.0745 0.476032 19.7981 0.0274902 17.5 0.0316393L17.5031 1.75698C19.5746 1.75324 21.6266 2.15756 23.5419 2.94685C25.4572 3.73614 27.1983 4.89496 28.6658 6.35712C30.1332 7.81929 31.2983 9.55617 32.0945 11.4686C32.8907 13.381 33.3025 15.4316 33.3062 17.5031C33.3099 19.5747 32.9056 21.6267 32.1163 23.542C31.327 25.4573 30.1682 27.1984 28.7061 28.6658C27.2439 30.1333 25.507 31.2984 23.5946 32.0946C21.6821 32.8908 19.6316 33.3025 17.56 33.3062L17.5632 35.0316Z" fill="#E6E0FF" stroke="#FF5F56" stroke-width="6" mask="url(#path-2-inside-1_3_123)"/>
<path d="M18.0001 14.9175L17.1976 16.3125C17.0176 16.62 17.1676 16.875 17.5201 16.875H18.4726C18.8326 16.875 18.9751 17.13 18.7951 17.4375L18.0001 18.8325" stroke="#FF5F56" stroke-width="1.5" stroke-linecap="round" stroke-linejoin="round"/>
<path d="M15.2251 22.53V21.66C13.5001 20.6175 12.0826 18.585 12.0826 16.425C12.0826 12.7125 15.4951 9.80249 19.3501 10.6425C21.0451 11.0175 22.5301 12.1425 23.3026 13.695C24.8701 16.845 23.2201 20.19 20.7976 21.6525V22.5225C20.7976 22.74 20.8801 23.2425 20.0776 23.2425H15.9451C15.1201 23.25 15.2251 22.9275 15.2251 22.53Z" stroke="#FF5F56" stroke-width="1.5" stroke-linecap="round" stroke-linejoin="round"/>
<path d="M15.3751 25.5C17.0926 25.0125 18.9076 25.0125 20.6251 25.5" stroke="#FF5F56" stroke-width="1.5" stroke-linecap="round" stroke-linejoin="round"/>
</svg>
