<svg width="19" height="18" viewBox="0 0 19 18" fill="none" xmlns="http://www.w3.org/2000/svg">
<path d="M9.36343 14.25C11.8459 14.25 13.8634 12.2325 13.8634 9.75V6C13.8634 3.5175 11.8459 1.5 9.36343 1.5C6.88093 1.5 4.86343 3.5175 4.86343 6V9.75C4.86343 12.2325 6.88093 14.25 9.36343 14.25Z" stroke="#755AE2" stroke-width="1.125" stroke-linecap="round" stroke-linejoin="round"/>
<path d="M2.61343 8.25V9.75C2.61343 13.4775 5.63593 16.5 9.36343 16.5C13.0909 16.5 16.1134 13.4775 16.1134 9.75V8.25" stroke="#755AE2" stroke-width="1.125" stroke-linecap="round" stroke-linejoin="round"/>
<path d="M7.19594 5.60999C8.53094 5.12249 9.98594 5.12249 11.3209 5.60999" stroke="#755AE2" stroke-width="1.125" stroke-linecap="round" stroke-linejoin="round"/>
<path d="M7.88593 7.86C8.78593 7.6125 9.73843 7.6125 10.6384 7.86" stroke="#755AE2" stroke-width="1.125" stroke-linecap="round" stroke-linejoin="round"/>
</svg>
