<svg width="16" height="16" viewBox="0 0 16 16" fill="none" xmlns="http://www.w3.org/2000/svg">
<rect width="16" height="16" rx="8" fill="#FF5F56"/>
<path d="M8 6.28751L7.55417 7.06251C7.45417 7.23334 7.5375 7.37501 7.73334 7.37501H8.2625C8.4625 7.37501 8.54167 7.51667 8.44167 7.68751L8 8.46251" stroke="white" stroke-width="0.5" stroke-linecap="round" stroke-linejoin="round"/>
<path d="M6.45833 10.5167V10.0333C5.5 9.45417 4.7125 8.325 4.7125 7.125C4.7125 5.0625 6.60834 3.44584 8.75 3.9125C9.69167 4.12084 10.5167 4.74584 10.9458 5.60834C11.8167 7.35833 10.9 9.21667 9.55417 10.0292V10.5125C9.55417 10.6333 9.6 10.9125 9.15417 10.9125H6.85834C6.4 10.9167 6.45833 10.7375 6.45833 10.5167Z" stroke="white" stroke-width="0.5" stroke-linecap="round" stroke-linejoin="round"/>
<path d="M6.54166 12.1667C7.49583 11.8958 8.50416 11.8958 9.45833 12.1667" stroke="white" stroke-width="0.5" stroke-linecap="round" stroke-linejoin="round"/>
</svg>
